<svg version="1" xmlns="http://www.w3.org/2000/svg" width="933.333" height="933.333" viewBox="0 0 700.000000 700.000000"><path d="M331 4c-74.3 3.8-146.1 32.3-204.1 80.8-21.9 18.3-45.3 44-62 68.2C.5 245.9-14.2 365.2 25.5 472c5.7 15.3 19.1 42.8 27.8 57.2 48.4 79.7 127.8 137.4 217.7 158.1 134.8 31.2 273.3-19.3 356.4-129.8 65.5-87 85.7-199.8 54.9-306-10.7-37-30.9-77.3-54.6-108.7C579.4 78.5 512.1 33.5 434.9 13.9 403 5.9 365.4 2.3 331 4zm13 171.4v129.4l-4.4.6c-15 2.3-31.7 19.1-34.2 34.4l-.7 4.2h-259l.7-11.3C50.3 269.9 72.1 212.4 111 162c8.8-11.4 37.2-40.1 49-49.4 20.8-16.5 46.9-32.1 71.2-42.5 32.7-13.9 73.9-23.2 107.1-24l5.7-.1v129.4zM396 49c43.1 6.4 85.6 22.6 122.1 46.6 17 11.2 32 23.5 47.9 39.4 39.5 39.5 65.6 85 79.5 138.5 5.6 21.6 9.5 47.7 9.5 63.7v7.8H528.5c-142.6 0-132.5.6-134.6-7.4-1.9-7.1-6-13.8-11.8-19.7-6.4-6.3-11.8-9.5-20.6-11.9l-6-1.7-.3-129.3-.2-129.3 13.7.6c7.6.4 19.9 1.6 27.3 2.7zm259 313.8c0 9.7-2.4 30.4-5 44.2-3.6 18.5-11.7 46.6-13.9 47.9-.5.4-3.2 6.3-6 13.2-9 21.9-23.6 46.9-40 68.4-9.7 12.7-37.5 40.8-50.8 51.3-29 22.9-59.4 39.3-93.8 50.7-25.4 8.4-51.3 13.4-78.2 15.1l-11.3.7V395.2l4.3-.6c2.3-.4 6.9-2 10.1-3.6 3.2-1.7 6.5-3 7.2-3 1.2 0 176.9 47 232.3 62.1 10.1 2.8 18.9 4.8 19.7 4.5 3-1.1 1.1-3.3-5.3-6.3-13-5.8-196.8-91.5-198.3-92.3-.9-.6 46-1 113.8-1H655v7.8zM305 358c0 3.4 3.6 12.6 6.8 17.2 6.8 9.9 18.2 17.8 28 19.4l4.2.7v259l-11.2-.7c-63.3-3.9-122.3-26.5-171.8-65.6-13.6-10.7-41.5-38.8-51.1-51.5C72.9 487.9 52.3 434.9 47 375c-.5-6.3-1-13.2-1-15.3V356h129.5c129.4 0 129.5 0 129.5 2z"/><path d="M219.1 123c-24.7 5.2-44.2 22.3-51.8 45.4-2.2 6.9-2.7 9.9-2.7 20.1-.1 10.6.2 13 2.8 20.8 6.7 20.5 22.8 36.7 43 43.4 7 2.3 9.7 2.7 20.6 2.7 10.9 0 13.5-.4 20.7-2.7 20.1-6.7 36.2-23 42.9-43.4 2.6-7.8 2.9-10.2 2.8-20.8 0-10.2-.5-13.2-2.7-20.1-6.8-20.5-23.6-37-44.2-43.4-7.9-2.5-24.3-3.5-31.4-2zm26.2 8.6c21 5.4 38.3 22.8 43.2 43.5 4.8 20.5-1.2 41-16.4 55.9-11.8 11.6-24.8 17-41.1 17s-29.3-5.4-41.1-17c-18.7-18.4-23.2-45.1-11.6-68.9 4.1-8.5 16.8-21.4 25-25.5 12.9-6.4 29.1-8.4 42-5z"/><path d="M223.7 165c-9.2 2.4-17.9 9.7-21.9 18.5-3.1 7-3.1 18 0 25 3 6.5 10.2 13.8 16.6 16.6 7 3.1 18.2 3.2 24.8.2 6.7-3 14.1-10.4 16.9-16.6 3.2-7.2 3.2-18.2 0-25.3-2.7-6.3-10.1-13.6-16.3-16.4-5.4-2.4-14.8-3.3-20.1-2zm13 25.2c5.1 4.8 1.5 13.8-5.6 13.8-4.7 0-8.1-3.2-8.1-7.9 0-7.2 8.4-10.9 13.7-5.9zM458.8 123c-22.8 4.1-41.4 18.5-50.7 39.2-4.2 9.4-5.5 16.1-5.4 27.8.1 17.9 6.5 33.1 19.4 45.9 7.8 7.9 16.6 13.2 27.4 16.8 6.8 2.2 9.8 2.6 19.5 2.6s12.7-.4 19.5-2.6c10.8-3.6 19.6-8.9 27.4-16.8 7.9-7.8 13.2-16.6 16.8-27.4 2.2-6.7 2.6-9.8 2.6-19.5s-.4-12.8-2.6-19.5c-8.9-27.2-32.6-45.6-60.6-47-4.7-.2-10.7 0-13.3.5zm24.5 8.6c21 5.4 38.3 22.8 43.2 43.5 4.8 20.5-1.2 41-16.4 55.9-11.8 11.6-24.8 17-41.1 17s-29.3-5.4-41.1-17c-18.7-18.4-23.2-45.1-11.6-68.9 4.1-8.5 16.8-21.4 25-25.5 12.9-6.4 29.1-8.4 42-5z"/><path d="M461.7 165c-9.2 2.4-17.9 9.7-21.9 18.5-3.1 7-3.1 18 0 25 3 6.5 10.2 13.8 16.6 16.6 7 3.1 18.2 3.2 24.8.2 6.7-3 14.1-10.4 16.9-16.6 3.2-7.2 3.2-18.2 0-25.3-2.7-6.3-10.1-13.6-16.3-16.4-5.4-2.4-14.8-3.3-20.1-2zm13 25.2c5.1 4.8 1.5 13.8-5.6 13.8-4.7 0-8.1-3.2-8.1-7.9 0-7.2 8.4-10.9 13.7-5.9zM529.3 450c-2.5 1-3.9 5.1-2.6 7.4.5.9 14.6 9.6 31.4 19.2 25.7 14.9 30.8 17.5 32.8 16.7 3.2-1.1 4.5-3.4 3.8-6.5-.5-1.9-3-3.9-9.4-7.6-4.9-2.7-18.7-10.7-30.7-17.6-12-6.9-22.2-12.6-22.5-12.5-.3 0-1.6.4-2.8.9zM451.8 527.2c-3.7 3-3 5 7.8 23.8 5.8 10.2 13.8 24 17.6 30.8 5.4 9.4 7.6 12.4 9.6 12.9 3.1.7 5.4-.6 6.6-3.8.7-2.1-1.6-6.8-16.4-32.4-9.5-16.5-18-30.6-18.8-31.3-.9-.6-2.3-1.2-3.2-1.2-.9 0-2.3.6-3.2 1.2zM145.4 461.6c-12 6.9-25.8 14.9-30.7 17.6-6.4 3.7-8.9 5.7-9.4 7.6-.7 3.1.6 5.4 3.8 6.6 2 .7 7-1.8 32.4-16.5 16.5-9.4 30.6-17.9 31.3-18.7 2.4-3.1.7-7.4-3.4-8.6-1.5-.5-8 2.8-24 12zM241.8 527.2c-.8.7-9.3 14.8-18.8 31.3-14.8 25.6-17.1 30.3-16.4 32.4 1.2 3.2 3.5 4.5 6.6 3.8 2-.5 4.5-4 11.6-16.4 4.9-8.7 12.9-22.5 17.6-30.8 8.8-15.3 9.4-17.4 5.8-20.3-.9-.6-2.3-1.2-3.2-1.2-.9 0-2.3.6-3.2 1.2z"/></svg>